<?xml version="1.0" encoding="UTF-8" standalone="no"?><!-- Generator: Gravit.io --><svg xmlns="http://www.w3.org/2000/svg" xmlns:xlink="http://www.w3.org/1999/xlink" style="isolation:isolate" viewBox="0 0 1044 1024" width="1044pt" height="1024pt"><defs><clipPath id="_clipPath_mtjchTJ4E4k8BneHZlpbRrlGHdy93JAv"><rect width="1044" height="1024"/></clipPath></defs><g clip-path="url(#_clipPath_mtjchTJ4E4k8BneHZlpbRrlGHdy93JAv)"><path d=" M 606.496 6.026 Q 587.342 2.815 540.341 0.947 Q 493.339 -0.921 477.389 0.895 Q 289.337 22.309 160.513 143.733 Q 48.638 249.18 13.732 397.905 Q -21.175 546.63 32.654 688.497 Q 89.893 839.356 224.63 931.678 Q 359.366 1024 522.295 1024 Q 692.801 1024 831.259 923.812 Q 969.715 823.624 1020.703 663.349 Q 1053.961 558.805 1039.741 447.278 Q 1025.522 335.751 967.25 244.104 Q 906.398 148.4 812.862 86.672 Q 719.325 24.943 606.496 6.027 L 606.496 6.026 Z " fill="rgb(255,255,255)"/><path d=" M 561.764 300.104 L 561.764 117.005 L 596.905 117.005 L 631.07 117.005 L 631.07 282.531 Q 631.07 448.981 633.022 448.981 Q 634.975 448.981 659.377 437.423 Q 683.781 425.863 685.245 427.251 Q 686.71 428.639 707.209 465.627 L 726.732 503.541 L 727.708 310.272 L 727.708 117.003 L 761.873 117.003 L 797.014 117.003 L 797.014 293.627 Q 797.014 471.173 798.478 471.173 Q 799.942 471.173 846.308 448.979 Q 892.676 426.787 895.114 426.787 Q 897.555 426.787 919.03 465.625 L 939.529 505.389 L 939.529 640.398 L 939.529 774.484 L 515.885 774.484 L 92.242 774.484 L 92.242 640.398 L 92.242 505.389 L 175.213 466.549 Q 257.21 426.787 260.138 426.787 Q 263.065 426.787 283.566 466.087 Q 304.065 505.389 306.504 504.463 Q 308.945 503.539 388.989 465.163 Q 469.031 426.787 471.472 426.787 Q 473.912 426.787 494.9 466.087 Q 515.885 505.389 518.328 504.463 Q 520.768 503.539 541.266 493.367 L 561.765 483.195 L 561.765 300.1 L 561.764 300.104 Z " fill="rgb(174,72,0)"/><path d=" M 270.875 666.294 L 270.875 624.68 L 198.641 624.68 L 127.383 624.68 L 127.383 666.294 L 128.359 707.906 L 199.617 707.906 L 270.875 708.83 L 270.875 666.294 L 270.875 666.294 Z " fill="rgb(255,255,255)"/><path d=" M 482.696 666.294 L 482.696 624.68 L 411.438 624.68 L 341.156 624.68 L 339.204 665.368 Q 338.229 706.056 339.692 707.443 Q 341.156 708.83 412.414 708.83 L 482.696 708.83 L 482.696 666.294 L 482.696 666.294 Z " fill="rgb(255,255,255)"/><path d=" M 694.52 666.294 L 694.52 624.68 L 623.26 624.68 L 552.004 624.68 L 552.004 666.294 L 552.004 708.83 L 623.26 708.83 L 694.52 708.83 L 694.52 666.294 Z " fill="rgb(255,255,255)"/><path d=" M 906.342 666.294 L 906.342 624.68 L 835.084 624.68 L 763.824 624.68 L 762.85 665.368 Q 761.874 706.056 763.338 707.443 Q 764.802 708.83 835.084 708.83 L 906.342 708.83 L 906.342 666.294 L 906.342 666.294 Z " fill="rgb(255,255,255)"/></g></svg>